<svg xmlns="http://www.w3.org/2000/svg" width="146.016" height="46.144" viewBox="0 0 146.016 46.144"><defs><style>.a,.b{fill:#047c9e;}.b,.c{fill-rule:evenodd;}.c{fill:#fcb818;}</style></defs><g transform="translate(-37.2 -72.1)"><path class="a" d="M165.853,514.732v4.182H163.8V509.6h2.053v3.539h3.815V509.6h2.038v9.315h-2.038v-4.182" transform="translate(-56.802 -400.962)"/><path class="a" d="M228.2,508c1.287,0,4.7.536,4.7,4.9s-3.4,4.9-4.7,4.9c-1.287,0-4.7-.536-4.7-4.9s3.416-4.9,4.7-4.9m0,8.15c1.1,0,2.65-.643,2.65-3.248s-1.547-3.248-2.65-3.248-2.65.643-2.65,3.248,1.547,3.248,2.65,3.248" transform="translate(-107.355 -399.607)"/><path class="a" d="M294.961,514.695c0,.521.291,1.5,2.068,1.5.965,0,2.053-.215,2.053-1.21,0-.72-.735-.919-1.777-1.149l-1.042-.23c-1.578-.352-3.11-.689-3.11-2.742,0-1.042.582-2.865,3.753-2.865,3,0,3.8,1.869,3.815,3H298.76c-.046-.414-.214-1.394-1.992-1.394-.781,0-1.7.276-1.7,1.118,0,.735.628.888,1.027.98l2.39.551c1.333.306,2.558.827,2.558,2.5,0,2.8-2.987,3.049-3.861,3.049-3.57,0-4.182-1.946-4.182-3.11" transform="translate(-166.208 -399.607)"/><path class="a" d="M355.553,518.915H353.5V509.6h4.474a2.789,2.789,0,0,1,3.033,2.987,2.917,2.917,0,0,1-3.125,2.972h-2.344m1.915-1.609c1.517,0,1.517-1.026,1.517-1.455,0-.9-.536-1.287-1.792-1.287h-1.624v2.742Z" transform="translate(-217.439 -400.962)"/><rect class="a" width="2.038" height="9.315" transform="translate(144.824 108.638)"/><path class="a" d="M437.094,518.915h-2.038v-7.66H432.1V509.6h7.951v1.655h-2.957" transform="translate(-283.998 -400.962)"/><path class="a" d="M489.26,518.915H487.1l3.493-9.315h2.359l3.447,9.315h-2.221L493.565,517h-3.616m.521-1.609h2.5l-1.21-3.677h-.031Z" transform="translate(-330.572 -400.962)"/><path class="a" d="M557.938,517.229h4.856v1.685H555.9V509.6h2.038" transform="translate(-388.831 -400.962)"/><path class="a" d="M610.876,514.695c.015.521.291,1.5,2.068,1.5.965,0,2.053-.215,2.053-1.21,0-.72-.735-.919-1.777-1.149l-1.057-.23c-1.578-.352-3.11-.689-3.11-2.742,0-1.042.582-2.865,3.753-2.865,3,0,3.8,1.869,3.815,3h-1.961c-.061-.414-.23-1.394-2.007-1.394-.766,0-1.7.276-1.7,1.118,0,.735.628.888,1.027.98l2.39.551c1.333.306,2.558.827,2.558,2.5,0,2.8-3,3.049-3.845,3.049-3.57,0-4.182-1.946-4.182-3.11" transform="translate(-433.712 -399.607)"/><path class="b" d="M-10.126,344.4-18.2,365.756h4.734l1.67-4.765h7.982l1.624,4.765H2.666L-5.316,344.4m-5.27,13.1L-7.8,349.67h.061l2.7,7.829ZM17.3,352.4a6.446,6.446,0,0,0-2.175-1.823,6.736,6.736,0,0,0-3.141-.689,6.03,6.03,0,0,0-2.635.567,4.686,4.686,0,0,0-1.976,1.823H7.308V350.3H3.263v25.539H7.522v-12h.061a5,5,0,0,0,1.992,1.716,6.056,6.056,0,0,0,2.65.582,6.3,6.3,0,0,0,2.972-.659,6.6,6.6,0,0,0,2.129-1.762,7.628,7.628,0,0,0,1.272-2.543,10.741,10.741,0,0,0,.414-2.987,11.885,11.885,0,0,0-.414-3.156,8.155,8.155,0,0,0-1.3-2.635m-2.727,7.492a4.649,4.649,0,0,1-.613,1.578,3.5,3.5,0,0,1-1.134,1.088,3.427,3.427,0,0,1-1.746.414,3.249,3.249,0,0,1-2.88-1.5,4.543,4.543,0,0,1-.628-1.578,8.006,8.006,0,0,1-.184-1.823,9.166,9.166,0,0,1,.184-1.854,4.649,4.649,0,0,1,.613-1.578,3.59,3.59,0,0,1,1.134-1.118,3.282,3.282,0,0,1,1.746-.429,3.352,3.352,0,0,1,1.716.429,3.688,3.688,0,0,1,1.149,1.134,5.268,5.268,0,0,1,.643,1.593,9.224,9.224,0,0,1,.2,1.823,10.066,10.066,0,0,1-.2,1.823m19.181-7.783a7.249,7.249,0,0,0-2.528-1.655,9.033,9.033,0,0,0-3.309-.582,8.646,8.646,0,0,0-3.294.582,7.045,7.045,0,0,0-2.512,1.655A6.932,6.932,0,0,0,20.5,354.68a9.43,9.43,0,0,0-.567,3.37,9.691,9.691,0,0,0,.567,3.355,7.423,7.423,0,0,0,1.609,2.558,6.974,6.974,0,0,0,2.512,1.624,8.95,8.95,0,0,0,3.294.567,9.091,9.091,0,0,0,3.309-.567,7.108,7.108,0,0,0,2.528-1.624,7.2,7.2,0,0,0,1.609-2.558,9.287,9.287,0,0,0,.567-3.355,9.43,9.43,0,0,0-.567-3.37,7.347,7.347,0,0,0-1.609-2.574M31.5,359.858a4.777,4.777,0,0,1-.613,1.578,3.139,3.139,0,0,1-1.164,1.118,3.627,3.627,0,0,1-1.808.414,3.527,3.527,0,0,1-1.792-.414,3.346,3.346,0,0,1-1.149-1.118,4.911,4.911,0,0,1-.613-1.578,8.825,8.825,0,0,1-.184-1.808,9.087,9.087,0,0,1,.184-1.823,4.649,4.649,0,0,1,.613-1.578,3.489,3.489,0,0,1,1.149-1.118,3.378,3.378,0,0,1,1.792-.429,3.626,3.626,0,0,1,1.808.429,3.4,3.4,0,0,1,1.164,1.118,4.649,4.649,0,0,1,.613,1.578,9.087,9.087,0,0,1,.184,1.823,8.936,8.936,0,0,1-.184,1.808m5.653,5.9H41.4V344.4H37.152Zm6.971,0h4.244V344.4H44.122ZM65.034,354.68a7.165,7.165,0,0,0-1.624-2.574,7.249,7.249,0,0,0-2.528-1.655,9.092,9.092,0,0,0-3.309-.582,8.7,8.7,0,0,0-3.294.582,7.045,7.045,0,0,0-2.512,1.655,7.379,7.379,0,0,0-1.624,2.574,10.258,10.258,0,0,0,0,6.726,7.236,7.236,0,0,0,1.624,2.558,6.974,6.974,0,0,0,2.512,1.624,8.95,8.95,0,0,0,3.294.567,9.148,9.148,0,0,0,3.309-.567,7.108,7.108,0,0,0,2.528-1.624,7.236,7.236,0,0,0,1.624-2.558,9.287,9.287,0,0,0,.567-3.355,9.779,9.779,0,0,0-.567-3.37m-3.876,5.178a4.467,4.467,0,0,1-.613,1.578,3.139,3.139,0,0,1-1.164,1.118,3.627,3.627,0,0,1-1.808.414,3.527,3.527,0,0,1-1.792-.414,3.346,3.346,0,0,1-1.149-1.118,4.911,4.911,0,0,1-.613-1.578,8.821,8.821,0,0,1-.169-1.808,10.347,10.347,0,0,1,.169-1.823,4.649,4.649,0,0,1,.613-1.578,3.489,3.489,0,0,1,1.149-1.118,3.378,3.378,0,0,1,1.792-.429,3.626,3.626,0,0,1,1.808.429,3.4,3.4,0,0,1,1.164,1.118,4.649,4.649,0,0,1,.613,1.578,9.087,9.087,0,0,1,.184,1.823,8.936,8.936,0,0,1-.184,1.808" transform="translate(97.316 -261.07)"/><path class="a" d="M66.538,192.664l2.528,1.961,2.513-1.961v-5.9h-5.04m5.285-6.45H65.8v-1.44l-13.757,15.5h7.292l7.17-8.273h5.331v-.8h0V180.73h0v-.414Zm-5.285-.659h5.04v-4.964l2.666-4.121H63.566l2.972,4.121ZM51.111,162.3H37.2v24.252h6.557L58.878,169.96Zm-4.979,8.426H43.956v2.16h-1.9v-2.16H39.9v-1.9h2.16v-2.16h1.9v2.16h2.175ZM56.84,185.464l1.057-3.723h1.425V171.37L44.615,187.517v7.109l7.354-8.058h3.4a1.387,1.387,0,0,0,1.471-1.1m.827-8.778-1.088,1.088-1.088-1.088Z" transform="translate(0 -76.381)"/><path class="c" d="M152.527,79.806l-.169-.046c-8.5-2.191-9.024-6.22-8.794-7.66a13.065,13.065,0,0,0,.077,6.863c1.026,1.011,4.412,2.512,7.675,2.834.352.046.7.107,1.042.169,8.579,1.624,9.3,8.61,6.174,12,.337-.643,3.937-7.921-4.887-9.407-.444-.077-.843-.153-1.21-.214-6.251-1.149-6.8-2.084-7.124-2.191-.245,1.072,1.3,6.863,7.124,7.583h.046c5.454.659,5.99,3.37,6.021,4.244h0v.015l.015-.031a6.91,6.91,0,0,0,2.666-5.347V88c-.138-3.432-2.574-7.093-8.656-8.2" transform="translate(-89.712 0)"/></g></svg>